<?xml version="1.0" encoding="utf-8"?>
<svg version="1.2" viewBox="13.575 5.667 31.545 86.422" width="5691" height="2865" xmlns="http://www.w3.org/2000/svg">
  <title>New Project 2</title>
  <style>
		.s0 { fill: #000b61 } 
		.s1 { fill: #114f5b } 
		.s2 { fill: #b79261 } 
		.s3 { fill: #5d3000 } 
		.s4 { fill: #6d6d6d } 
		.s5 { fill: #98733c } 
	</style>
  <path id="Layer 7" class="s0" d="M 40.605 78 L 41 88 L 39 90 L 35 91 L 32 91 L 30 89 L 30 85 L 18 85 L 18 82 L 20 80 L 22 78 L 23 74 L 31 74 L 31 77 L 40.605 78 Z"/>
  <path id="Layer 8" class="s1" d="M 37.418 59.736 L 38.077 67.968 L 41 71 L 40.736 78.186 L 30.814 77.395 L 30.341 74.186 L 23.054 74.187 L 22.923 70.713 L 24 69 L 23 66 L 22.659 53.736 L 24.946 50.945 L 28.264 50.209 L 32 51.736 L 33.791 53.077 L 35 57 L 37.418 59.736 Z"/>
  <path id="Layer 9" class="s2" d="M 41 42 L 41 47 L 40 51 L 39 53 L 39 57 L 38 59 L 34 58 L 34 55 L 34 53 L 35 51 L 35 47 L 37 47 L 37 43 L 41 42 Z M 23.659 52.605 L 23 57 L 21 58 L 19 57 L 19 54 L 20 52 L 23.659 52.605 Z M 27 33 L 31.791 33.264 L 33.659 31.527 L 33 28 L 34 26 L 35 24 L 36.659 21.868 L 35.527 19.736 L 33.791 17.814 L 30.868 16.605 L 27 14.341 L 24 15 L 22 16 L 21 19 L 20.287 22.814 L 22 26 L 24.736 27.659 L 26.736 28.923 L 27.341 31.132 L 27 33 Z"/>
  <path id="Layer 10" class="s3" d="M 34 54 L 32 52 L 28 51 L 26 51 L 24 53 L 20 52 L 21.791 47.473 L 21.155 45.232 L 22.659 38.628 L 22.945 35.124 L 24 33 L 26 32 L 29 33 L 32 33 L 34 30 L 36 31 L 38 32 L 40 33 L 41 35 L 37 35 L 35 36 L 35 40 L 35 42 L 37 42 L 37 45 L 37 47 L 35 48 L 34 51 L 34 54 Z"/>
  <path id="Layer 11" class="s4" d="M 27.263 32.682 L 25.023 51.954 C 25.268 50.24 31.564 51.714 31.473 52.35 L 32.395 32.023 C 31.96 33.544 29.377 33.06 27.263 32.682 Z M 36 35 L 38.923 33.946 L 41.054 34.946 L 42.264 39.791 L 40.736 42.186 L 36.891 43.186 C 36.891 43.186 36.068 43.354 34.868 42.054 C 34.126 44.661 34 37 34 37 L 36 35 Z M 30 61"/>
  <path id="Layer 12" class="s4" d="M 39.868 20 L 36.209 21.45 L 33.209 19.318 L 31.605 17.45 L 28 15.527 L 24 15 L 21.791 16.527 L 19 16 L 20 13 L 22 11 L 25 8 L 27.736 7.054 L 31 7 L 33 8 L 36 10 L 38 12 L 40 15 L 39.868 20 Z" style="fill: rgb(17, 79, 91);"/>
  <path id="Layer 13" class="s5" d="M 40 20 L 41 23 L 39 25 L 38 28 L 37 30 L 33.868 29.473 L 32.946 26.868 L 34.473 23.946 L 35.736 21.605 L 37.659 20.527 L 40 20 Z M 22 16 L 21 20 L 21 22 L 22 25 L 19 25 L 17.659 23.868 L 17.186 21.186 L 17.527 17.868 L 19 16 L 22 16 Z"/>
</svg>