<?xml version="1.0" encoding="utf-8"?>
<svg version="1.2" viewBox="157.744 4.584 35.367 88.831" width="5691" height="2865" xmlns="http://www.w3.org/2000/svg">
  <title>New Project 2</title>
  <style>
		.s0 { fill: #6c4700 } 
		.s1 { fill: #9e6749 } 
		.s2 { fill: #9e5d2a } 
	</style>
  <path id="Shape 1" class="s0" d="M 169 92 L 173 92 L 179 93 L 183 92 L 186 90 L 187 66 L 186.646 47.104 L 184 45 L 178 46 L 172 46 L 170 50 L 166 46 L 163 47 L 164 52 L 166 55 L 169 56 L 168 63 L 169 73 L 169 92 Z M 174 42"/>
  <path id="Layer 5" class="s1" d="M 169.937 50.145 L 166.479 46.542 L 165.833 46.062 L 166 45 L 168 43 L 172 41 L 174 40 L 170 39 L 168 37 L 166 34 L 166 29 L 167 27 L 171 24 L 174 22 L 178 23 L 182 24 L 184 28 L 184 33 L 181 38 L 181.292 39.271 L 181.521 43.167 L 180.458 45.958 L 172.647 46.063 L 169.937 50.145 Z"/>
  <path id="Layer 6" class="s2" d="M 166 31 L 163 30 L 163 27 L 158 27 L 161 23 L 164 22 L 162 21 L 163 19 L 166 18 L 168 18 L 171 16 L 173 15 L 176 14 L 177 11 L 179 11 L 179 7 L 181 5 L 186 5 L 187 8 L 189 8 L 192 10 L 193 12 L 193 14 L 192 17 L 190 19 L 189 21 L 192 23 L 193 27 L 192 29 L 191 39 L 190 42 L 192 43 L 192 47 L 190 48 L 190 51 L 188 52 L 187 46 L 184 46 L 181 47 L 180 45 L 180 40 L 180 35 L 180 32 L 176 28 L 175 26 L 173 23 L 171 25 L 169 27 L 167 27 L 167 30 L 166 31 Z"/>
</svg>