<?xml version="1.0" encoding="utf-8"?>
<svg version="1.2" viewBox="170.631 110.724 26.505 64.527" width="5691" height="2865" xmlns="http://www.w3.org/2000/svg">
  <title>New Project 2</title>
  <style>
		.s0 { fill: #674936 } 
		.s1 { fill: #9e6749 } 
		.s2 { fill: #9e5d2a } 
	</style>
  <path id="Shape 1" class="s0" d="M 191 174 L 189 175 L 186 175 L 182 174 L 178 173 L 176 172 L 177 158 L 178 155 L 178 151 L 178 143 L 177 140 L 178 137 L 180 136 L 182 136 L 185 136 L 188 135 L 190 135 L 191 137 L 191 140 L 189 142 L 188 144 L 189 146 L 189 148 L 189.806 151 L 187 154 L 187 156 L 187 159 L 189 159 L 191 159 L 193 161 L 193 172 L 191 174 Z"/>
  <path id="Layer 7" class="s1" d="M 192 159 L 190 160 L 187 159 L 187 157 L 187 154 L 189 151 L 188 148 L 188 143 L 191 140 L 193 140 L 194 143 L 194 147 L 194 151 L 193 154 L 192 159 Z"/>
  <path id="Layer 8" class="s1" d="M 178 156 L 176 157 L 175 155 L 175 153 L 178.003 150.398 L 178 156 Z"/>
  <path id="Layer 9" class="s1" d="M 181.799 136.502 L 180 135 L 178 133 L 176 131 L 175 125 L 177 123 L 181 123 L 185 123 L 187 123 L 188 125 L 189 129 L 188 132 L 186 133 L 185.799 136.401 L 181.799 136.502 Z"/>
  <path id="Layer 10" class="s2" d="M 192 138 L 194 140 L 196 139 L 197 137 L 196 135 L 194 133 L 192 134 L 192 130 L 193 128 L 193 120 L 191 117 L 188 115 L 186 114 L 184 114 L 183 112 L 180 114 L 180 112 L 178 111 L 176 111 L 177 114 L 175 115 L 173 118 L 172 121 L 171 125 L 175 130 L 175 126 L 176.498 123.702 L 179 123.702 L 182.9 123.702 L 186.093 124.104 L 187.696 125.1 L 188.692 128.602 L 187.896 130.201 L 185.792 132.602 L 185.695 136.107 L 189.298 136.104 L 192 136 L 192 138 Z"/>
</svg>