<?xml version="1.0" encoding="utf-8"?>
<svg version="1.2" viewBox="3745.21 761.348 23.692 77.141" width="5691" height="2865" xmlns="http://www.w3.org/2000/svg">
  <title>New Project 2</title>
  <style>
		.s0 { fill: #2d2d2d } 
		.s1 { fill: #213321 } 
	</style>
  <path id="Layer 5" class="s0" d="m3750 824l3 2h3l2 1h3 2l1 5 2 1 2 2-1 2h-9l-1-3h-6l-1-2z"/>
  <path id="Shape 1" class="s1" d="M 3749 825 L 3753 827 L 3756 828 L 3760 829 L 3766 829 L 3766 817 L 3765.543 814.575 L 3765.899 811.866 L 3766.305 805.748 L 3766.356 799.848 L 3766.831 795.306 L 3768 791 L 3767 789 L 3764 786 L 3763 784 L 3764 782 L 3766 781 L 3766 770 L 3765 768 L 3762 766 L 3760 765 L 3752 765 L 3749 767 L 3748 770 L 3748 780 L 3750 784 L 3751 786 L 3748 788 L 3747 790 L 3747 794 L 3747.576 797.611 L 3748.644 804.424 L 3748.932 807.492 L 3749 811 L 3748 816 L 3749 825 Z"/>
</svg>