<?xml version="1.0" encoding="utf-8"?>
<svg version="1.2" viewBox="2644.998 668.017 367.895 551.999" width="5691" height="2865" xmlns="http://www.w3.org/2000/svg">
  <title>New Project 2</title>
  <style>
		.s0 { fill: #6b6b6b } 
		.s1 { fill: #5e5e5e } 
		.s2 { fill: #432104 } 
		.s3 { fill: #525252 } 
		.s4 { fill: #3676b8 } 
		.s5 { fill: #2f67a0 } 
		.s6 { fill: #ffd300 } 
		.s7 { fill: #343333 } 
		.s8 { fill: #8b6b4c } 
	</style>
  <path id="Layer 2" class="s0" d="m3010 1136l-158 82-191-97 1-182 128 62 123-65 3 72 62 32 29 33z"/>
  <path id="Layer 11" class="s1" d="m2665 946l-1 170 187 95 57-28-1-104-18 8-39 74-59-33 1-121 115-59v54l-112 53v5l118-57v-63l-128 68-5 163 9 5 2-43 60 34 41-76 9-4-1 95-48 22-182-90v-164z"/>
  <path id="Layer 12" class="s1" d="m2671 948l115 58v66l-55-28 1 104-11-5 2-103-54-28v-4l114 59v-58l-115-58z"/>
  <path id="Layer 13" class="s1" d="m2956 1054l23-11 28 37-1 53-46 22-3-98h5l4 89 37-15v-50l-25-32-22 9z"/>
  <path id="Layer 14" class="s2" d="m2919 1184l26-12v-46c0 0-11.8-18-25 7"/>
  <path id="Layer 6" class="s3" d="m2760 782l27 12 26-13-26-18z"/>
  <path id="Layer 7" class="s4" d="m2820 725l-34-55-34 61 35 14zm-66 61l32 15 32-12 97 148-127 66-132-67zm95 371l37-73 93-43 28 37 4-3-30-40-66-39-1 10-87 41-34 79z"/>
  <path id="Layer 10" class="s5" d="m2786 803h3l2 195h-5z"/>
  <path id="Layer 5" class="s6" d="m2774 771h24l3-7-3-4-3-6-3-4-5-3-7 2-4 3-2 5-1 6v5z"/>
  <path id="Layer 3" class="s0" d="m2765 783l21 10 24-10 1-53 7-2 1 60-33 13-29-13v-56l9 2z"/>
  <path id="Layer 4" class="s0" d="m2766 743l17 7v45l8 1-1-46 26-14v-8l-28 16-28-12z"/>
  <path id="Layer 8" class="s7" d="m2972 1130l24-8v-23l-10-3-5 1-6 3-3 5z"/>
  <path id="Layer 8 copy" class="s7" d="m2867 1178l24-8v-23l-10-3-5 1-6 3-3 5z"/>
  <path id="Layer 8 copy 2" class="s7" d="M 2738 1071 L 2775 1086.5 L 2775 1131.2 L 2759.6 1137 L 2751.9 1135.1 L 2742.6 1129.2 L 2738 1119.5 L 2738 1071 Z" style="transform-origin: 2756.5px 1104px;" transform="matrix(-1, 0, 0, -1, 0.000007, -0.000022)"/>
  <path id="Layer 8 copy 3" class="s7" d="M 2678 1037 L 2715 1052.5 L 2715 1097.2 L 2699.6 1103 L 2691.9 1101.1 L 2682.6 1095.2 L 2678 1085.5 L 2678 1037 Z" style="transform-origin: 2696.5px 1070px;" transform="matrix(-1, 0, 0, -1, 0.000024, -0.00003)"/>
  <path id="Layer 9" class="s8" d="m2881 1171l8-3v-12l-8 4zm-11 5l8-3v-12l-8 4zm8-18l-8 4c0 0-2.8-5.3 3-11 5.8-5.7 5 7 5 7zm-8 18l8-3v-12l-8 4zm18-23l-8 4c0 0-1.8-10.7 4-10 5.8 0.7 4 6 4 6z"/>
  <path id="Layer 9 copy" class="s8" d="m2985 1122l8-3v-12l-8 4zm-11 5l8-3v-12l-8 4zm8-18l-8 4c0 0-2.8-5.3 3-11 5.8-5.7 5 7 5 7zm-8 18l8-3v-12l-8 4zm18-23l-8 4c0 0-1.8-10.7 4-10 5.8 0.7 4 6 4 6z"/>
  <path id="Layer 9 copy 2" class="s8" d="M 2758.5 1086.44 L 2771 1092.14 L 2771 1114.84 L 2758.5 1107.24 L 2758.5 1086.44 Z M 2741.4 1076.94 L 2753.9 1082.64 L 2753.9 1105.44 L 2741.4 1097.84 L 2741.4 1076.94 Z M 2753.9 1111.04 L 2741.4 1103.44 C 2741.4 1103.44 2737 1113.54 2746.1 1124.34 C 2755.2 1135.04 2753.9 1111.04 2753.9 1111.04 Z M 2741.4 1076.94 L 2753.9 1082.64 L 2753.9 1105.34 L 2741.4 1097.74 L 2741.4 1076.94 Z M 2769.4 1120.54 L 2757 1112.94 C 2757 1112.94 2754.1 1133.14 2763.2 1131.94 C 2772.3 1130.64 2769.4 1120.54 2769.4 1120.54 Z" style="transform-origin: 2755.67px 1104.48px;" transform="matrix(-1, 0, 0, -1, 0.000175, 0.00003)"/>
  <path id="Layer 9 copy 3" class="s8" d="M 2698.5 1051.44 L 2711 1057.14 L 2711 1079.84 L 2698.5 1072.24 L 2698.5 1051.44 Z M 2681.4 1041.94 L 2693.9 1047.64 L 2693.9 1070.44 L 2681.4 1062.84 L 2681.4 1041.94 Z M 2693.9 1076.04 L 2681.4 1068.44 C 2681.4 1068.44 2677 1078.54 2686.1 1089.34 C 2695.2 1100.04 2693.9 1076.04 2693.9 1076.04 Z M 2681.4 1041.94 L 2693.9 1047.64 L 2693.9 1070.34 L 2681.4 1062.74 L 2681.4 1041.94 Z M 2709.4 1085.54 L 2697 1077.94 C 2697 1077.94 2694.1 1098.14 2703.2 1096.94 C 2712.3 1095.64 2709.4 1085.54 2709.4 1085.54 Z" style="transform-origin: 2695.67px 1069.48px;" transform="matrix(-1, 0, 0, -1, 0.000191, 0.000039)"/>
</svg>