<?xml version="1.0" encoding="utf-8"?>
<svg version="1.2" viewBox="201.978 266.235 26.622 84.163" width="5691" height="2865" xmlns="http://www.w3.org/2000/svg">
  <title>New Project 2</title>
  <style>
		.s0 { fill: #6b4200 } 
		.s1 { fill: #847300 } 
		.s2 { fill: #f7de94 } 
		.s3 { fill: #ae9239 } 
		.s4 { fill: #c70000 } 
	</style>
  <path id="Layer 10" class="s0" d="m223 330v6l3 2 1 3-2 2h-5-4l-1 3-2 2h-3-4l-2-3v-8l1-3 4 1h4l1-3 1-2z"/>
  <path id="Layer 11" class="s1" d="M 223 311 L 223 324 L 224 326 L 223.287 329.389 L 222 330 L 214.895 330.36 L 213.163 335.092 L 210.954 335.046 L 208 335 L 205 334 L 203 332 L 204 327 L 206 323 L 208.255 315.908 L 211.791 315.013 C 211.013 310.604 211.994 309.966 212 310 L 210 306 L 209 304 L 208 302 L 203 301 L 204 294 L 206 293 L 208.611 289.99 L 208.806 286.045 L 213.972 287.629 L 216.426 292.287 C 216.572 292.054 218.233 292.959 219.398 291.601 C 218.707 286.934 222.837 287.074 223.528 291.741 L 222 302 L 221 304 L 221 308 L 221.648 309.481 L 223 311 Z"/>
  <path id="Layer 12" class="s2" d="M 207.895 301.954 L 211 307 L 212 312 L 212 316 L 209.837 316.372 L 206.418 315.059 L 205.209 310.477 L 203.941 306.105 L 203 300.745 L 207.895 301.954 Z M 221.895 301.85 L 223 306 L 225 310 L 225 313 L 225 316 L 223 316 L 221.787 309.435 L 220.745 305.281 L 221.895 301.85 Z M 211 282 L 223 283 L 224 275 L 222 272 L 213 271 L 209 273 L 208 277 L 209 280 L 211 282 Z"/>
  <path id="Layer 13" class="s3" d="m211 272l2 1 2 1h3l3-1 1-2-1-3-4-1h-3l-2 1z"/>
  <path id="Layer 14" class="s4" d="M 224 283 L 223 286 L 221.519 288.843 L 220.194 291.972 L 217.806 294.296 L 214.287 289.741 L 212.87 287.778 L 211.13 286.843 L 209.519 287.648 L 208.611 290.167 L 206.611 289.843 C 206.612 289.85 206.68 287.158 206.519 286.194 L 207.167 283.519 L 208.583 282.778 L 209.805 282.389 L 211.093 282.028 L 224 283 Z"/>
</svg>