<?xml version="1.0" encoding="utf-8"?>
<svg version="1.2" viewBox="205.583 273.254 23.22 78.324" width="5691" height="2865" xmlns="http://www.w3.org/2000/svg">
  <title>New Project 2</title>
  <style>
		.s0 { fill: #003494 } 
		.s1 { fill: #b1610b } 
		.s2 { fill: #948e19 } 
		.s3 { fill: #003692 } 
		.s4 { fill: #bda681 } 
		.s5 { fill: #9d9d9c } 
	</style>
  <path id="Layer 9" class="s0" d="M 225.966 337 L 227 348 L 225 349 L 221 350 L 218 349 L 217 346 L 215 345 L 207 345 L 206 343 L 206 341 L 208 340 L 210.421 332.321 L 217.742 333.225 L 218 337 L 225.966 337 Z"/>
  <path id="Layer 10" class="s1" d="M 226 338 L 223.674 321.449 L 222.354 319.028 L 220.905 318.64 L 220.455 318.286 L 220.421 316.225 C 223.169 315.126 217.33 315.868 217 316 L 214 315 L 213.742 314.803 L 210.551 315.708 L 209 320 L 208.68 323.23 L 208 328 L 210 330 L 210 333 L 217 335 L 218 337 L 226 338 Z"/>
  <path id="Layer 11" class="s2" d="M 220.292 315.775 L 217 316 L 217 298 L 218.871 296.095 L 222 297 L 223 300 L 222 302 L 224.006 303.258 L 222.938 306.095 L 224.36 310.163 L 222.455 313.809 L 220.292 315.775 Z M 213.034 297.095 L 211.646 299.612 C 211.646 299.523 211 302.76 211 303 L 211 306 L 209 305 L 208 303 L 208 300 L 209 297 L 210.966 296.646 L 213.034 297.095 Z"/>
  <path id="Layer 12" class="s3" d="M 217.871 296.927 L 217 316 L 215 316 L 215 314 L 210.545 305.736 L 211.191 300.09 L 212.966 296.798 L 217.871 296.927 Z"/>
  <path id="Layer 13" class="s4" d="M 219 297 L 219.388 292.225 L 223.034 289.871 L 223.905 284.967 L 221.742 282.837 L 208 285 L 208 291 L 209 294 L 212 295 L 213 297 L 219 297 Z M 221 303 L 222.579 298.579 L 227 305 L 227 309 L 226 314 L 224 318 L 223 321 L 219 321 L 218 319 L 219 314 L 222 312 L 222 305 L 221 303 Z"/>
  <path id="Layer 14" class="s5" d="m215 316v-8l-2-1v-2h-7v4l1 2 3 1v4z"/>
  <path id="Layer 15" class="s2" d="M 207 287 L 220 287 L 221 284 L 223 284 L 225 287 L 224.742 280.483 L 224 278 L 221 275 L 217 274 L 211 275 L 209 278 L 207 280 L 207 287 Z"/>
</svg>