<?xml version="1.0" encoding="utf-8"?>
<svg viewBox="3.95 28.863 369.126 271.927" xmlns="http://www.w3.org/2000/svg">
  <path id="Layer 2" class="s0" d="M 12.676 295.112 L 199.676 199.112 L 248.676 278.112 L 290.676 247.112 L 289.676 126.112 L 198.676 83.112 L 13.676 180.112" style="fill: rgb(124, 60, 60); transform-box: fill-box; transform-origin: 50% 50%;" transform="matrix(-1, 0, 0, -1, 0.000006, -0.000013)"/>
  <path id="Layer 11" class="s1" d="M 101.676 178.112 L 101.676 289.112 L 105.676 289.112 L 104.676 178.112 L 101.676 178.112 Z" style="fill: rgb(115, 50, 55); transform-box: fill-box; transform-origin: 50% 50%;" transform="matrix(-1, 0, 0, -1, -0.000004, 0.000001)"/>
  <path id="Layer 8" class="s2" d="M 39.676 181.112 L 40.676 254.112 L 68.676 273.112 L 71.676 197.112" style="fill: rgb(72, 34, 18); transform-box: fill-box; transform-origin: 50% 50%;" transform="matrix(-1, 0, 0, -1, 0.000001, -0.000001)"/>
  <path id="Layer 7" class="s3" d="M 290.676 238.112 L 198.676 193.112 L 12.676 291.112 L 13.676 300.112 L 199.676 204.112 L 289.676 247.112 L 290.676 238.112 Z" style="fill: rgb(156, 133, 107); transform-box: fill-box; transform-origin: 50% 50%;" transform="matrix(-1, 0, 0, -1, 0.000006, 0.000006)"/>
  <path id="Layer 9" class="s4" d="M 138.676 252.112 L 165.676 237.112 L 165.676 208.112 L 138.676 223.112 M 201.676 222.112 L 228.676 207.112 L 228.676 178.112 L 201.676 193.112" style="fill: rgb(140, 82, 33); transform-box: fill-box; transform-origin: 50% 50%;" transform="matrix(-1, 0, 0, -1, 0.000016, -0.000005)"/>
  <path id="Layer 10" class="s5" d="M 214.676 199.112 L 214.676 188.112 L 203.676 194.112 L 203.676 204.112 L 214.676 199.112 Z M 214.676 199.112 L 214.676 188.112 L 203.676 194.112 L 203.676 204.112 L 214.676 199.112 Z M 227.676 207.112 L 227.676 196.112 L 216.676 202.112 L 216.676 212.112 L 227.676 207.112 Z M 227.676 207.112 L 227.676 196.112 L 216.676 202.112 L 216.676 212.112 L 227.676 207.112 Z M 227.676 193.112 L 227.676 182.112 L 216.676 188.112 L 216.676 198.112 L 227.676 193.112 Z M 227.676 193.112 L 227.676 182.112 L 216.676 188.112 L 216.676 198.112 L 227.676 193.112 Z M 214.676 213.112 L 214.676 202.112 L 203.676 208.112 L 203.676 218.112 L 214.676 213.112 Z M 214.676 213.112 L 214.676 202.112 L 203.676 208.112 L 203.676 218.112 L 214.676 213.112 Z M 151.676 229.112 L 151.676 218.112 L 140.676 224.112 L 140.676 234.112 L 151.676 229.112 Z M 151.676 229.112 L 151.676 218.112 L 140.676 224.112 L 140.676 234.112 L 151.676 229.112 Z M 164.676 237.112 L 164.676 226.112 L 153.676 232.112 L 153.676 242.112 L 164.676 237.112 Z M 164.676 237.112 L 164.676 226.112 L 153.676 232.112 L 153.676 242.112 L 164.676 237.112 Z M 164.676 223.112 L 164.676 212.112 L 153.676 218.112 L 153.676 228.112 L 164.676 223.112 Z M 164.676 223.112 L 164.676 212.112 L 153.676 218.112 L 153.676 228.112 L 164.676 223.112 Z M 151.676 243.112 L 151.676 232.112 L 140.676 238.112 L 140.676 248.112 L 151.676 243.112 Z M 151.676 243.112 L 151.676 232.112 L 140.676 238.112 L 140.676 248.112 L 151.676 243.112 Z" style="fill: rgb(41, 25, 0); transform-box: fill-box; transform-origin: 50% 50%;" transform="matrix(-1, 0, 0, -1, 0.000016, -0.000005)"/>
  <path id="Layer 5" class="s7" d="M 101.032 103.669 L 115.032 93.669 L 132.032 115.669 L 131.032 127.669 L 117.032 138.669 L 102.032 129.669" style="fill: rgb(124, 64, 71); transform-box: fill-box; transform-origin: 50% 50%;" transform="matrix(-1, 0, 0, -1, -0.00001, -0.000004)"/>
  <path id="Layer 6" class="s8" d="M 119.37 108.316 L 125.37 102.316 L 117.37 97.316 L 109.37 101.316 L 119.37 108.316 Z" style="transform-box: fill-box; transform-origin: 50% 50%;" transform="matrix(-1, 0, 0, -1, 0.000005, 0.000002)"/>
  <path id="path-1" class="s0" d="M 197.683 134.861 L 275.1 176.408 L 324.1 97.408 L 366.1 128.408 L 365.1 249.408 L 274.1 292.408 L 202.066 238.7" style="fill: rgb(124, 60, 60);"/>
  <path id="path-2" class="s1" d="M 273.1 286.408 L 273.1 175.408 L 277.1 175.408 L 276.1 286.408 L 273.1 286.408 Z" style="fill: rgb(115, 50, 55);"/>
  <path id="path-3" class="s2" d="M 307.1 270.408 L 308.1 197.408 L 336.1 178.408 L 339.1 254.408" style="fill: rgb(72, 34, 18);"/>
  <path id="path-4" class="s3" d="M 366.1 252.408 L 274.1 297.408 L 201.403 248.788 L 202.066 238.435 L 275.1 286.408 L 365.1 243.408 L 366.1 252.408 Z" style="fill: rgb(156, 133, 107);"/>
  <path id="path-7" class="s3" d="M 275.1 178.408 L 324.1 101.408 L 369.1 134.408 L 372.1 131.408 L 326.1 96.408 L 193.98 30.142 L 192.02 136.214 L 275.1 178.408 Z" style="fill: rgb(156, 133, 107);"/>
  <path id="path-5" class="s6" d="M 62.058 102.068 L 153.703 151.437 L 290.676 87.112 L 243.676 13.112 L 62.058 102.068 Z" style="fill: rgb(107, 42, 50); transform-origin: 174.676px 94.112px;" transform="matrix(-1, 0, 0, -1, 0.000008, 0.000011)"/>
  <path id="path-6" class="s3" d="M 199.676 5.112 L 248.676 82.112 L 293.676 49.112 L 296.676 52.112 L 250.676 87.112 L 109.423 155.746 L 6.676 103.112 L 199.676 5.112 Z" style="fill: rgb(156, 133, 107); transform-origin: 151.676px 93.112px;" transform="matrix(-1, 0, 0, -1, 0.000001, 0.00001)"/>
  <path id="path-9" class="s6" d="M 62.058 101.068 L 153.703 150.437 L 290.676 86.112 L 243.676 12.112 L 62.058 101.068 Z" style="fill: rgb(107, 42, 50); transform-origin: 174.676px 93.112px;" transform="matrix(-1, 0, 0, -1, 0.000008, 0.00001)"/>
  <path id="path-10" class="s6" d="M 101.629 86.497 L 194.289 36.451 L 320.777 99.085 L 273.777 173.085 L 101.629 86.497 Z" style="fill: rgb(107, 42, 50);"/>
  <path id="path-16" class="s7" d="M 91.384 101.251 L 105.384 91.251 L 122.384 113.251 L 121.384 125.251 L 107.384 136.251 L 92.384 127.251" style="fill: rgb(124, 64, 71); transform-box: fill-box; transform-origin: 50% 50%;" transform="matrix(-1, 0, 0, -1, 0.000006, -0.000007)"/>
  <path id="path-17" class="s8" d="M 109.897 106.711 L 115.897 100.711 L 107.897 95.711 L 99.897 99.711 L 109.897 106.711 Z" style="transform-box: fill-box; transform-origin: 50% 50%;" transform="matrix(-1, 0, 0, -1, -0.000012, 0.000008)"/>
</svg>