<?xml version="1.0" encoding="utf-8"?>
<svg viewBox="3.95 1.128 291.761 299.662" xmlns="http://www.w3.org/2000/svg">
  <path id="Layer 2" class="s0" d="M 9.985 80.049 L 196.985 176.049 L 245.985 97.049 L 287.985 128.049 L 286.985 249.049 L 195.985 292.049 L 10.985 195.049" style="fill: rgb(124, 60, 60);"/>
  <path id="Layer 11" class="s1" d="M 194.985 286.049 L 194.985 175.049 L 198.985 175.049 L 197.985 286.049 L 194.985 286.049 Z" style="fill: rgb(115, 50, 55);"/>
  <path id="Layer 8" class="s2" d="M 228.985 270.049 L 229.985 197.049 L 257.985 178.049 L 260.985 254.049" style="fill: rgb(72, 34, 18);"/>
  <path id="Layer 7" class="s3" d="M 287.985 252.049 L 195.985 297.049 L 9.985 199.049 L 10.985 190.049 L 196.985 286.049 L 286.985 243.049 L 287.985 252.049 Z" style="fill: rgb(156, 133, 107);"/>
  <path id="Layer 9" class="s4" d="M 71.985 175.049 L 98.985 190.049 L 98.985 219.049 L 71.985 204.049 M 134.985 205.049 L 161.985 220.049 L 161.985 249.049 L 134.985 234.049" style="fill: rgb(140, 82, 33);"/>
  <path id="Layer 10" class="s5" d="M 146.985 228.049 L 146.985 239.049 L 135.985 233.049 L 135.985 223.049 L 146.985 228.049 Z M 146.985 228.049 L 146.985 239.049 L 135.985 233.049 L 135.985 223.049 L 146.985 228.049 Z M 159.985 220.049 L 159.985 231.049 L 148.985 225.049 L 148.985 215.049 L 159.985 220.049 Z M 159.985 220.049 L 159.985 231.049 L 148.985 225.049 L 148.985 215.049 L 159.985 220.049 Z M 159.985 234.049 L 159.985 245.049 L 148.985 239.049 L 148.985 229.049 L 159.985 234.049 Z M 159.985 234.049 L 159.985 245.049 L 148.985 239.049 L 148.985 229.049 L 159.985 234.049 Z M 146.985 214.049 L 146.985 225.049 L 135.985 219.049 L 135.985 209.049 L 146.985 214.049 Z M 146.985 214.049 L 146.985 225.049 L 135.985 219.049 L 135.985 209.049 L 146.985 214.049 Z M 83.985 198.049 L 83.985 209.049 L 72.985 203.049 L 72.985 193.049 L 83.985 198.049 Z M 83.985 198.049 L 83.985 209.049 L 72.985 203.049 L 72.985 193.049 L 83.985 198.049 Z M 96.985 190.049 L 96.985 201.049 L 85.985 195.049 L 85.985 185.049 L 96.985 190.049 Z M 96.985 190.049 L 96.985 201.049 L 85.985 195.049 L 85.985 185.049 L 96.985 190.049 Z M 96.985 204.049 L 96.985 215.049 L 85.985 209.049 L 85.985 199.049 L 96.985 204.049 Z M 96.985 204.049 L 96.985 215.049 L 85.985 209.049 L 85.985 199.049 L 96.985 204.049 Z M 83.985 184.049 L 83.985 195.049 L 72.985 189.049 L 72.985 179.049 L 83.985 184.049 Z M 83.985 184.049 L 83.985 195.049 L 72.985 189.049 L 72.985 179.049 L 83.985 184.049 Z" style="fill: rgb(41, 25, 0);"/>
  <path id="Layer 4" class="s3" d="M 196.985 178.049 L 245.985 101.049 L 290.985 134.049 L 293.985 131.049 L 247.985 96.049 L 54.985 2.049 L 3.985 80.049 L 196.985 178.049 Z" style="fill: rgb(156, 133, 107);"/>
  <path id="Layer 3" class="s6" d="M 9.985 79.049 L 56.985 9.049 L 241.985 97.049 L 194.985 171.049 L 9.985 79.049 Z" style="fill: rgb(107, 42, 50);"/>
  <path id="Layer 5" class="s7" d="M 100.985 87.049 L 114.985 97.049 L 131.985 75.049 L 130.985 63.049 L 116.985 52.049 L 101.985 61.049" style="fill: rgb(124, 64, 71);"/>
  <path id="Layer 6" class="s8" d="M 117.985 57.049 L 123.985 63.049 L 115.985 68.049 L 107.985 64.049 L 117.985 57.049 Z"/>
</svg>