<?xml version="1.0" encoding="utf-8"?>
<svg viewBox="3.95 1.128 291.761 299.662" xmlns="http://www.w3.org/2000/svg">
  <path id="Layer 2" class="s0" d="M 9.985 292.049 L 196.985 196.049 L 245.985 275.049 L 287.985 244.049 L 286.985 123.049 L 195.985 80.049 L 10.985 177.049" style="fill: rgb(124, 60, 60); transform-box: fill-box; transform-origin: 50% 50%;" transform="matrix(-1, 0, 0, -1, 0.000008, 0)"/>
  <path id="Layer 11" class="s1" d="M 98.985 175.049 L 98.985 286.049 L 102.985 286.049 L 101.985 175.049 L 98.985 175.049 Z" style="fill: rgb(115, 50, 55); transform-box: fill-box; transform-origin: 50% 50%;" transform="matrix(-1, 0, 0, -1, -0.000001, 0.000013)"/>
  <path id="Layer 8" class="s2" d="M 36.985 178.049 L 37.985 251.049 L 65.985 270.049 L 68.985 194.049" style="fill: rgb(72, 34, 18); transform-box: fill-box; transform-origin: 50% 50%;" transform="matrix(-1, 0, 0, -1, 0.000008, -0.000029)"/>
  <path id="Layer 7" class="s3" d="M 287.985 235.049 L 195.985 190.049 L 9.985 288.049 L 10.985 297.049 L 196.985 201.049 L 286.985 244.049 L 287.985 235.049 Z" style="fill: rgb(156, 133, 107); transform-box: fill-box; transform-origin: 50% 50%;" transform="matrix(-1, 0, 0, -1, 0.000008, -0.000041)"/>
  <path id="Layer 9" class="s4" d="M 135.985 249.049 L 162.985 234.049 L 162.985 205.049 L 135.985 220.049 M 198.985 219.049 L 225.985 204.049 L 225.985 175.049 L 198.985 190.049" style="fill: rgb(140, 82, 33); transform-box: fill-box; transform-origin: 50% 50%;" transform="matrix(-1, 0, 0, -1, -0.000009, -0.000009)"/>
  <path id="Layer 10" class="s5" d="M 211.985 196.049 L 211.985 185.049 L 200.985 191.049 L 200.985 201.049 L 211.985 196.049 Z M 211.985 196.049 L 211.985 185.049 L 200.985 191.049 L 200.985 201.049 L 211.985 196.049 Z M 224.985 204.049 L 224.985 193.049 L 213.985 199.049 L 213.985 209.049 L 224.985 204.049 Z M 224.985 204.049 L 224.985 193.049 L 213.985 199.049 L 213.985 209.049 L 224.985 204.049 Z M 224.985 190.049 L 224.985 179.049 L 213.985 185.049 L 213.985 195.049 L 224.985 190.049 Z M 224.985 190.049 L 224.985 179.049 L 213.985 185.049 L 213.985 195.049 L 224.985 190.049 Z M 211.985 210.049 L 211.985 199.049 L 200.985 205.049 L 200.985 215.049 L 211.985 210.049 Z M 211.985 210.049 L 211.985 199.049 L 200.985 205.049 L 200.985 215.049 L 211.985 210.049 Z M 148.985 226.049 L 148.985 215.049 L 137.985 221.049 L 137.985 231.049 L 148.985 226.049 Z M 148.985 226.049 L 148.985 215.049 L 137.985 221.049 L 137.985 231.049 L 148.985 226.049 Z M 161.985 234.049 L 161.985 223.049 L 150.985 229.049 L 150.985 239.049 L 161.985 234.049 Z M 161.985 234.049 L 161.985 223.049 L 150.985 229.049 L 150.985 239.049 L 161.985 234.049 Z M 161.985 220.049 L 161.985 209.049 L 150.985 215.049 L 150.985 225.049 L 161.985 220.049 Z M 161.985 220.049 L 161.985 209.049 L 150.985 215.049 L 150.985 225.049 L 161.985 220.049 Z M 148.985 240.049 L 148.985 229.049 L 137.985 235.049 L 137.985 245.049 L 148.985 240.049 Z M 148.985 240.049 L 148.985 229.049 L 137.985 235.049 L 137.985 245.049 L 148.985 240.049 Z" style="fill: rgb(41, 25, 0); transform-box: fill-box; transform-origin: 50% 50%;" transform="matrix(-1, 0, 0, -1, 0.00001, -0.000009)"/>
  <path id="Layer 4" class="s3" d="M 196.985 2.049 L 245.985 79.049 L 290.985 46.049 L 293.985 49.049 L 247.985 84.049 L 54.985 178.049 L 3.985 100.049 L 196.985 2.049 Z" style="fill: rgb(156, 133, 107); transform-box: fill-box; transform-origin: 50% 50%;" transform="matrix(-1, 0, 0, -1, 0.000008, -0.000002)"/>
  <path id="Layer 3" class="s6" d="M 55.985 101.049 L 102.985 171.049 L 287.985 83.049 L 240.985 9.049 L 55.985 101.049 Z" style="fill: rgb(107, 42, 50); transform-box: fill-box; transform-origin: 50% 50%;" transform="matrix(-1, 0, 0, -1, 0.000022, 0.000014)"/>
  <path id="Layer 5" class="s7" d="M 165.985 62.049 L 179.985 52.049 L 196.985 74.049 L 195.985 86.049 L 181.985 97.049 L 166.985 88.049" style="fill: rgb(124, 64, 71); transform-box: fill-box; transform-origin: 50% 50%;" transform="matrix(-1, 0, 0, -1, 0.00001, -0.000008)"/>
  <path id="Layer 6" class="s8" d="M 183.985 68.049 L 189.985 62.049 L 181.985 57.049 L 173.985 61.049 L 183.985 68.049 Z" style="transform-box: fill-box; transform-origin: 50% 50%;" transform="matrix(-1, 0, 0, -1, -0.000005, -0.000002)"/>
</svg>