<?xml version="1.0" encoding="utf-8"?>
<svg version="1.2" viewBox="20.491 4.836 20.889 67.691" width="5691" height="2865" xmlns="http://www.w3.org/2000/svg">
  <title>New Project 2</title>
  <style>
		.s0 { fill: #bd9873 } 
		.s1 { fill: #7a0000 } 
		.s2 { fill: #364f41 } 
	</style>
  <path id="Layer 7" class="s0" d="M 34.805 71.544 L 33 72 L 28 72 L 25 71 L 24 68 L 26 35 L 23 32 L 23 29 L 25 27 L 27 25 L 28 23 L 26 21 L 25 17 L 25 14 L 28 12 L 30 12 L 33 13 L 35 14 L 38 13 L 39 16 L 38 18 L 39 23 L 39 26 L 39 28 L 41 30 L 41 32 L 41 42 L 40 44 L 39 46 L 39 48 L 39 50 L 38 52 L 38 61 L 37.222 69.52 L 34.805 71.544 Z"/>
  <path id="Layer 8" class="s1" d="M 26 46 L 27 48 L 30 49 L 33 49 L 37 47 L 39 45 L 39 27 L 35 28 L 32 27 L 29 31 L 28 24 L 25 27 L 23 29 L 22.495 31.906 L 26 35 C 25.999 35.002 26.887 38.226 27 38 L 25 41 L 26 46 Z"/>
  <path id="Layer 9" class="s2" d="m24 16l-1-2-2-1v-2l2-2-2-2 2-1h2l2-1h7l2 1 2 2 1 2 1 2v4 2l-1 5 1 4-4 1h-3l-2-2 1-3 2-2v-2-2-3l-2-1h-3l-3 1z"/>
</svg>