<?xml version="1.0" encoding="utf-8"?>
<svg version="1.2" viewBox="3669.022 630.448 251.199 243.541" width="5691" height="2865" xmlns="http://www.w3.org/2000/svg">
  <title>New Project 2</title>
  <style>
		.s0 { fill: #633110 } 
		.s1 { fill: #424242 } 
		.s2 { fill: #a20000 } 
	</style>
  <path id="Layer 4" class="s0" d="m3674 698l4 1v112h-4z"/>
  <path id="Layer 4 copy" class="s0" d="M 3799 760 L 3803 761 L 3803 873 L 3799 873 L 3799 760 Z"/>
  <path id="Layer 4 copy 2" class="s0" d="M 3884 693 L 3888 694 L 3888 806 L 3884 806 L 3884 693 Z"/>
  <path id="Layer 5" class="s1" d="M 3672 698 L 3801.109 761.812 L 3887.515 694 L 3759 632 C 3757.12 646.829 3711.162 687.992 3672 698 Z"/>
  <path id="Layer 6" class="s2" d="M 3792.782 648.406 C 3804.132 656.661 3714.65 720.188 3709 716.079 L 3694.406 708.97 C 3701.076 712.002 3783.657 651.522 3778 641 L 3792.782 648.406 Z"/>
  <path id="Layer 6 copy" class="s2" d="M 3822.63 662.661 C 3829.053 664.078 3779.379 715.98 3739.891 731.079 L 3724.406 723.376 C 3731.031 726.531 3817.867 660.699 3808 656 L 3822.63 662.661 Z"/>
  <path id="Layer 6 copy 2" class="s2" d="M 3855.71 678.701 C 3864.828 680.98 3772.821 746.705 3770 746 L 3756 738 C 3761.668 739.063 3847.459 672.823 3840.485 671.515 L 3855.71 678.701 Z"/>
  <path id="Layer 6 copy 3" class="s2" d="M 3886.751 693.327 C 3860.937 731.402 3797.392 764.408 3799.703 761 L 3783.624 753.594 C 3790.186 755.891 3868.002 700.357 3870.414 685.695 C 3870.409 685.693 3878.791 690.939 3886.751 693.327 Z"/>
</svg>