<?xml version="1.0" encoding="utf-8"?>
<svg version="1.2" viewBox="3744.513 762.568 27.244 72.377" width="5691" height="2865" xmlns="http://www.w3.org/2000/svg">
  <title>New Project 2</title>
  <style>
		.s0 { fill: #303030 } 
		.s1 { fill: #870002 } 
	</style>
  <path id="Layer 3" class="s0" d="m3747 827l3 2h4l1 3 3 1h4l2-1 1-2v-7h-7l-6-4-1 4-2 1-1 1-1 1z"/>
  <path id="Layer 4" class="s1" d="m3750 819l2 3h2 2l2 2h3 3 2v-11l1 4 1 2 1-14-2-1 1-16-2-2-1-2v-2l1-2 1-5-1-3-1-2-1-3-2-1-4-2h-2l-3 1-3 2-2 2v4 7l1 2 1 2-2 3-1 2v3l2 3v7l-1 2v2l1 2 1 3z"/>
</svg>