<?xml version="1.0" encoding="utf-8"?>
<svg version="1.2" viewBox="13.596 9.319 26.98 86.682" width="5691" height="2865" xmlns="http://www.w3.org/2000/svg">
  <title>New Project 2</title>
  <style>
		.s0 { fill: #482200 } 
		.s1 { fill: #002e51 } 
		.s2 { fill: #483f15 } 
		.s3 { fill: #0f035d } 
	</style>
  <path id="Layer 6" class="s0" d="M 39 89 L 40 91 L 39 94 L 36 95 L 32 95 L 29 94 L 28 92 L 28 89 L 15 89 L 14 87 L 15 84 L 17 82 L 19 81 L 21 83 L 23 85 L 27 86 L 31 87 L 33 86 L 36 86 L 39 89 Z"/>
  <path id="Layer 7" class="s1" d="M 35.789 59.426 L 37 70 L 37 73 L 39 76 L 40 81 L 40 87 L 38 89 L 36 87 L 34 86 L 31 87 L 29 88 L 27 87 L 23 86 L 20 84 L 18 82 L 18 75 L 20 71 L 19 68 L 18 65 L 17.637 52.426 L 21.879 48.126 C 21.958 47.981 29.61 46.568 27.968 49.579 L 33.058 51.758 L 32.663 54.668 L 32.663 56.789 L 32.058 60.395 L 33.605 59.942 L 35.789 59.426 Z"/>
  <path id="Layer 9" class="s2" d="M 32 55 L 30 55 L 30 58 L 31 61 L 36 60 L 37 56 L 38 50 L 38 48 L 40 47 L 39 36 L 37 34 L 35 32 L 32 30 L 31 27 L 33 24 L 34 21 L 36 19 L 37 17 L 37 14 L 34 14 L 34 12 L 31.879 10.516 L 29.547 9.758 L 22.3 9.758 L 19.452 10.548 C 19.514 10.332 17.636 11.351 17.121 13.153 L 16.153 17.058 L 17.121 23.547 L 19 26 L 20 28 L 23 29 L 23 31 L 21 32 L 20 32 L 18 34 L 17 35 L 17 40 L 18 42 L 18 49 L 16 52 L 15 53 L 15 56 L 16 58 L 17 58 L 19 57 L 19 53 L 18 52 L 21 49 L 24 48 L 26 49 L 28 51 L 30 50 L 32 52 L 32 55 Z M 27 62"/>
  <path id="Layer 8" class="s3" d="m32 51l-1 2 1 2h3 2l1-2v-2l-2-1h-3zm-1-2v2h-6v-2h-4l-2 3h-3l3-3 1-1v-1h5v1h4z"/>
</svg>