<?xml version="1.0" encoding="utf-8"?>
<svg version="1.2" viewBox="19.035 101.25 30.33 40.289" width="5691" height="2865" xmlns="http://www.w3.org/2000/svg">
  <title>New Project 2</title>
  <style>
		.s0 { fill: #297c25 } 
		.s1 { fill: #205b1d } 
	</style>
  <path id="Layer 9" class="s0" d="M 25 136 L 27 139 L 31 141 L 36 140 L 40 137 L 42 132 L 45 125 L 49 114 L 47.347 115.04 L 41 129 L 39.884 102.96 L 38.387 105.792 L 36.965 112.538 L 36 119 L 34.595 101.421 L 33.347 104.196 L 32.364 109.283 L 31 111 L 29.555 102.185 L 27.364 102.144 L 27.728 110.341 L 26 113 L 24.884 104.208 L 23.329 107.925 L 24 113 L 19.711 110.607 L 25 136 Z"/>
  <path id="Layer 10" class="s1" d="M 24 116 L 29 136 L 31 136 L 25 115 L 24 116 Z M 26.613 114.306 L 31 135 L 32 135 L 33 135 L 29.058 114.249 L 26.613 114.306 Z M 30.364 114.809 L 31 137 L 33 137 L 32.116 111.266 L 30.364 114.809 Z M 38.329 111.514 L 35 136 L 37 136 L 39.214 115.538 L 38.329 111.514 Z M 33 118 L 33.769 110.445 L 35 115.474 L 33.786 134.561 L 33 118 Z M 39 136 L 38 134 L 43 128 L 39 136 Z M 39 123 L 38 131 L 40 130 L 39 123 Z"/>
</svg>