<?xml version="1.0" encoding="utf-8"?>
<svg version="1.2" viewBox="3233.287 1875.993 257.207 287.149" width="5691" height="2865" xmlns="http://www.w3.org/2000/svg">
  <title>New Project 2</title>
  <style>
		.s0 { fill: #4a4a4a } 
		.s1 { fill: #393a3a } 
		.s2 { fill: #313131 } 
		.s3 { fill: #272827 } 
		.s4 { fill: #252626 } 
		.s5 { fill: #001021 } 
		.s6 { fill: #53584f } 
	</style>
  <path id="Layer 2" class="s0" d="m3488 2082l-157 80-91-46v-129l94 61 151-86z"/>
  <path id="Layer 5" class="s1" d="m3239 1991.4l94 55.6-51.7-84z"/>
  <path id="Layer 4" class="s2" d="m3239 1994l41-27 54 85 155-92-51-83-159 82-44 31z"/>
  <path id="Layer 10" class="s3" d="m3334 2048l-4 105 4-1 3-104z"/>
  <path id="Layer 6" class="s4" d="m3432 2067l23-13-1-42-22 12z"/>
  <path id="Layer 6 copy" class="s4" d="m3366 2101l23-13-1-42-22 12z"/>
  <path id="Layer 6 copy 2" class="s4" d="M 3289 2101 L 3266 2088 L 3267 2046 L 3289 2058 L 3289 2101 Z" style="transform-origin: 3277.5px 2073.5px;"/>
  <path id="Layer 7" class="s5" d="m3435 2026l7-5v17l-7 4zm0 20l7-5v17l-7 4zm10-26l7-5v17l-7 4zm0 20l7-5v17l-7 4z"/>
  <path id="Layer 7 copy 2" class="s5" d="M 3269 2086 L 3276 2091 L 3276 2074 L 3269 2070 L 3269 2086 Z M 3269 2066 L 3276 2071 L 3276 2054 L 3269 2050 L 3269 2066 Z M 3279 2092 L 3286 2097 L 3286 2080 L 3279 2076 L 3279 2092 Z M 3279 2072 L 3286 2077 L 3286 2060 L 3279 2056 L 3279 2072 Z" style="transform-origin: 3277.5px 2073.5px;" transform="matrix(-1, 0, 0, -1, -0.00002, 0.000023)"/>
  <path id="Layer 7 copy" class="s5" d="m3369 2061l7-5v17l-7 4zm0 20l7-5v17l-7 4zm10-26l7-5v17l-7 4zm0 20l7-5v17l-7 4z"/>
  <path id="Layer 8" class="s6" d="m3398 2127l26-14v-75l-27 12z"/>
  <path id="Layer 7 copy 3" class="s5" d="m3402 2054l7-5v17l-7 4zm0 20l7-5v17l-7 4zm10-26l7-5v17l-7 4zm0 20l7-5v17l-7 4z"/>
</svg>